<svg id="visual" viewBox="0 0 960 540" width="960" height="540" xmlns="http://www.w3.org/2000/svg" xmlns:xlink="http://www.w3.org/1999/xlink" version="1.1"><rect x="0" y="0" width="960" height="540" fill="#FBAE3C"></rect><defs><linearGradient id="grad1_0" x1="43.8%" y1="100%" x2="100%" y2="0%"><stop offset="14.444444444444446%" stop-color="#fbae3c" stop-opacity="1"></stop><stop offset="85.55555555555554%" stop-color="#fbae3c" stop-opacity="1"></stop></linearGradient></defs><defs><linearGradient id="grad2_0" x1="0%" y1="100%" x2="56.3%" y2="0%"><stop offset="14.444444444444446%" stop-color="#fbae3c" stop-opacity="1"></stop><stop offset="85.55555555555554%" stop-color="#fbae3c" stop-opacity="1"></stop></linearGradient></defs><g transform="translate(960, 540)"><path d="M-388 0C-405.1 -40.1 -422.2 -80.2 -411.5 -110.3C-400.8 -140.3 -362.3 -160.2 -351.6 -203C-341 -245.8 -358.2 -311.6 -334.5 -334.5C-310.8 -357.3 -246.2 -337.2 -207.5 -359.4C-168.8 -381.6 -156.1 -446.1 -125.8 -469.4C-95.5 -492.8 -47.8 -474.9 0 -457L0 0Z" fill="#009688"></path></g><g transform="translate(0, 0)"><path d="M456 0C438.5 33.6 421 67.3 420.2 112.6C419.3 157.9 435 215 403.6 233C372.1 251 293.4 230.1 266.6 266.6C239.8 303.1 264.9 397 243 420.9C221.1 444.8 152.4 398.6 104 388.3C55.7 378 27.9 403.5 0 429L0 0Z" fill="#009688"></path></g></svg>